# Blender v2.77 (sub 0) OBJ File: 'Trees_Cut.blend'
# www.blender.org
o Cylinder.005_Cylinder.016
v -0.000000 0.000000 -0.503442
v 0.355987 0.000000 -0.355988
v 0.503442 0.000000 0.000000
v 0.355987 0.000000 0.355987
v -0.000000 0.000000 0.503441
v -0.355987 0.000000 0.355987
v -0.503442 0.000000 0.000000
v -0.355987 0.000000 -0.355988
v 0.048565 1.192826 -0.047739
v -0.000000 1.192826 -0.067856
v -0.048565 1.192826 0.049391
v -0.048565 1.192826 -0.047739
v 0.068681 1.192826 0.000826
v 0.048565 1.192826 0.049391
v -0.000000 1.192826 0.069508
v -0.068681 1.192826 0.000826
v 0.284325 1.214826 -0.283500
v -0.000000 1.214826 -0.401271
v -0.284325 1.214826 -0.283500
v 0.284325 1.214826 0.285151
v 0.402096 1.214826 0.000826
v -0.000000 1.214826 0.402923
v -0.284325 1.214826 0.285151
v -0.402096 1.214826 0.000826
v 0.229426 1.192826 -0.228601
v -0.000000 1.192826 -0.323632
v -0.229426 1.192826 -0.228601
v 0.229426 1.192826 0.230252
v 0.324458 1.192826 0.000826
v -0.000000 1.192826 0.325284
v -0.229426 1.192826 0.230252
v -0.324458 1.192826 0.000826
v 0.162398 1.192826 -0.161572
v -0.000000 1.192826 -0.228840
v -0.162398 1.192826 -0.161572
v 0.162398 1.192826 0.163224
v 0.229665 1.192826 0.000826
v -0.000000 1.192826 0.230492
v -0.162398 1.192826 0.163224
v -0.229665 1.192826 0.000826
v 0.093078 1.192826 -0.092253
v -0.000000 1.192826 -0.130807
v -0.093078 1.192826 -0.092253
v 0.093078 1.192826 0.093904
v 0.131632 1.192826 0.000826
v -0.000000 1.192826 0.132459
v -0.093078 1.192826 0.093904
v -0.131632 1.192826 0.000826
v 0.229426 1.214826 -0.228601
v -0.000000 1.214826 -0.323632
v -0.229426 1.214826 -0.228601
v 0.229426 1.214826 0.230252
v 0.324458 1.214826 0.000826
v -0.000000 1.214826 0.325284
v -0.229426 1.214826 0.230252
v -0.324458 1.214826 0.000826
v 0.162398 1.214826 -0.161572
v -0.000000 1.214826 -0.228840
v -0.162398 1.214826 -0.161572
v 0.162398 1.214826 0.163224
v 0.229665 1.214826 0.000826
v -0.000000 1.214826 0.230492
v -0.162398 1.214826 0.163224
v -0.229665 1.214826 0.000826
v 0.093078 1.214826 -0.092253
v -0.000000 1.214826 -0.130807
v -0.093078 1.214826 -0.092253
v 0.093078 1.214826 0.093904
v 0.131632 1.214826 0.000826
v -0.000000 1.214826 0.132459
v -0.093078 1.214826 0.093904
v -0.131632 1.214826 0.000826
v 0.048565 1.214826 -0.047739
v -0.000000 1.214826 -0.067856
v -0.048565 1.214826 -0.047739
v 0.048565 1.214826 0.049391
v 0.068681 1.214826 0.000826
v -0.000000 1.214826 0.069508
v -0.048565 1.214826 0.049391
v -0.068681 1.214826 0.000826
vt 0.5996 0.6025
vt 0.5958 0.6427
vt 0.4359 0.6326
vt 0.4407 0.5822
vt 0.8946 0.2837
vt 0.8826 0.2787
vt 0.9064 0.2547
vt 0.9113 0.2666
vt 0.4488 0.8341
vt 0.6061 0.8037
vt 0.6150 0.8432
vt 0.4600 0.8835
vt 0.5958 0.7236
vt 0.5997 0.7638
vt 0.4408 0.7842
vt 0.4360 0.7338
vt 0.5945 0.6832
vt 0.4343 0.6832
vt 0.4600 0.4828
vt 0.6150 0.5231
vt 0.6060 0.5626
vt 0.4488 0.5322
vt 0.9263 0.2889
vt 0.9289 0.2827
vt 0.9362 0.2901
vt 0.9304 0.2927
vt 0.9403 0.2543
vt 0.9353 0.2662
vt 0.9643 0.2782
vt 0.9524 0.2831
vt 0.9264 0.3020
vt 0.9305 0.2982
vt 0.9361 0.3005
vt 0.9288 0.3080
vt 0.9119 0.3245
vt 0.9069 0.3364
vt 0.8829 0.3124
vt 0.8948 0.3076
vt 0.9526 0.3070
vt 0.9646 0.3120
vt 0.9408 0.3360
vt 0.9359 0.3241
vt 0.9208 0.3019
vt 0.9183 0.3081
vt 0.9207 0.2887
vt 0.9167 0.2925
vt 0.9111 0.2901
vt 0.9184 0.2827
vt 0.9110 0.3005
vt 0.9168 0.2980
vt 0.9058 0.3396
vt 0.8798 0.3139
vt 0.9673 0.2767
vt 0.9678 0.3131
vt 0.9414 0.2511
vt 0.9423 0.3390
vt 0.9049 0.2517
vt 0.8794 0.2776
vt 0.9129 0.3215
vt 0.9346 0.3213
vt 0.8976 0.3062
vt 0.9497 0.3060
vt 0.9496 0.2844
vt 0.9343 0.2692
vt 0.9127 0.2694
vt 0.8975 0.2847
vt 0.9187 0.2932
vt 0.9188 0.2970
vt 0.9256 0.3000
vt 0.9285 0.2974
vt 0.9300 0.3104
vt 0.9174 0.3107
vt 0.9085 0.3017
vt 0.9387 0.2890
vt 0.9387 0.3014
vt 0.9298 0.2801
vt 0.9172 0.2803
vt 0.9085 0.2892
vt 0.9216 0.2999
vt 0.9286 0.2936
vt 0.9256 0.2910
vt 0.9215 0.2907
vt 0.8698 0.3179
vt 0.8699 0.2738
vt 0.9773 0.2728
vt 0.9773 0.3169
vt 0.9004 0.2413
vt 0.9457 0.2411
vt 0.9468 0.3494
vt 0.9014 0.3496
vn 0.0000 0.0838 -0.9965
vn 0.7047 0.0836 -0.7045
vn 0.7046 0.0836 -0.7047
vn 0.0000 1.0000 -0.0000
vn -0.7048 0.0827 0.7046
vn -0.7046 0.0827 0.7048
vn -0.9965 0.0831 0.0002
vn -0.9965 0.0831 -0.0002
vn 0.7046 0.0827 0.7048
vn 0.0000 0.0825 0.9966
vn 0.7048 0.0827 0.7046
vn 0.9965 0.0831 0.0002
vn 0.9965 0.0831 -0.0002
vn -0.7047 0.0836 -0.7045
vn -0.7046 0.0836 -0.7047
vn -0.0000 0.0000 1.0000
vn 0.7071 0.0000 0.7071
vn -0.7071 0.0000 -0.7071
vn -1.0000 0.0000 0.0000
vn 0.0000 0.0000 -1.0000
vn -0.7071 0.0000 0.7071
vn 0.7071 0.0000 -0.7071
vn 1.0000 0.0000 0.0000
s 1
f 18/1/1 17/2/2 2/3/3 1/4/1
f 40/5/4 32/6/4 31/7/4 39/8/4
f 6/9/5 23/10/6 24/11/7 7/12/8
f 20/13/9 22/14/10 5/15/10 4/16/11
f 5/15/10 22/14/10 23/10/6 6/9/5
f 21/17/12 20/13/9 4/16/11 3/18/13
f 17/2/2 21/17/12 3/18/13 2/3/3
f 7/19/8 24/20/7 19/21/14 8/22/15
f 8/22/15 19/21/14 18/1/1 1/4/1
f 15/23/4 46/24/4 44/25/4 14/26/4
f 39/8/4 31/7/4 30/27/4 38/28/4
f 38/28/4 30/27/4 28/29/4 36/30/4
f 9/31/4 13/32/4 45/33/4 41/34/4
f 34/35/4 26/36/4 27/37/4 35/38/4
f 37/39/4 36/30/4 28/29/4 29/40/4
f 37/39/4 29/40/4 25/41/4 33/42/4
f 34/35/4 33/42/4 25/41/4 26/36/4
f 40/5/4 35/38/4 27/37/4 32/6/4
f 10/43/4 9/31/4 41/34/4 42/44/4
f 11/45/4 16/46/4 48/47/4 47/48/4
f 15/23/4 11/45/4 47/48/4 46/24/4
f 14/26/4 44/25/4 45/33/4 13/32/4
f 10/43/4 42/44/4 43/49/4 12/50/4
f 26/36/16 50/51/16 51/52/17 27/37/17
f 28/29/18 52/53/18 53/54/19 29/40/19
f 30/27/20 54/55/20 52/53/18 28/29/18
f 29/40/19 53/54/19 49/56/21 25/41/21
f 31/7/22 55/57/22 54/55/20 30/27/20
f 32/6/23 56/58/23 55/57/22 31/7/22
f 27/37/17 51/52/17 56/58/23 32/6/23
f 34/35/20 58/59/20 57/60/22 33/42/22
f 35/38/18 59/61/18 58/59/20 34/35/20
f 37/39/23 61/62/23 60/63/17 36/30/17
f 36/30/17 60/63/17 62/64/16 38/28/16
f 33/42/22 57/60/22 61/62/23 37/39/23
f 38/28/16 62/64/16 63/65/21 39/8/21
f 39/8/21 63/65/21 64/66/19 40/5/19
f 40/5/19 64/66/19 59/61/18 35/38/18
f 16/46/19 80/67/19 75/68/18 12/50/18
f 9/31/22 73/69/22 77/70/23 13/32/23
f 41/34/21 65/71/21 66/72/16 42/44/16
f 42/44/16 66/72/16 67/73/17 43/49/17
f 44/25/18 68/74/18 69/75/19 45/33/19
f 46/24/20 70/76/20 68/74/18 44/25/18
f 45/33/19 69/75/19 65/71/21 41/34/21
f 47/48/22 71/77/22 70/76/20 46/24/20
f 48/47/23 72/78/23 71/77/22 47/48/22
f 43/49/17 67/73/17 72/78/23 48/47/23
f 10/43/20 74/79/20 73/69/22 9/31/22
f 12/50/18 75/68/18 74/79/20 10/43/20
f 13/32/23 77/70/23 76/80/17 14/26/17
f 14/26/17 76/80/17 78/81/16 15/23/16
f 15/23/16 78/81/16 79/82/21 11/45/21
f 11/45/21 79/82/21 80/67/19 16/46/19
f 25/41/21 49/56/21 50/51/16 26/36/16
f 12/50/4 43/49/4 48/47/4 16/46/4
f 51/52/4 19/83/4 24/84/4 56/58/4
f 52/53/4 20/85/4 21/86/4 53/54/4
f 54/55/4 55/57/4 23/87/4 22/88/4
f 65/71/4 69/75/4 61/62/4 57/60/4
f 67/73/4 59/61/4 64/66/4 72/78/4
f 54/55/4 22/88/4 20/85/4 52/53/4
f 49/56/4 53/54/4 21/86/4 17/89/4
f 50/51/4 18/90/4 19/83/4 51/52/4
f 65/71/4 57/60/4 58/59/4 66/72/4
f 71/77/4 72/78/4 64/66/4 63/65/4
f 55/57/4 56/58/4 24/84/4 23/87/4
f 68/74/4 60/63/4 61/62/4 69/75/4
f 68/74/4 70/76/4 62/64/4 60/63/4
f 67/73/4 66/72/4 58/59/4 59/61/4
f 50/51/4 49/56/4 17/89/4 18/90/4
f 73/69/4 75/68/4 80/67/4 77/70/4
f 80/67/4 79/82/4 76/80/4 77/70/4
f 71/77/4 63/65/4 62/64/4 70/76/4
f 74/79/4 75/68/4 73/69/4
f 78/81/4 76/80/4 79/82/4
