# Blender v2.77 (sub 0) OBJ File: 'Trees_Cut.blend'
# www.blender.org
o Cylinder.004_Cylinder.015
v -0.000000 0.000000 -0.652586
v -0.007085 0.634675 -0.136432
v 0.461448 0.000000 -0.461448
v 0.090148 0.626100 -0.102715
v 0.652586 0.000000 -0.000000
v 0.134337 0.606951 -0.011364
v 0.461448 0.000000 0.461447
v 0.099599 0.588445 0.084109
v -0.000000 0.000000 0.652585
v 0.006282 0.581422 0.127778
v -0.461448 0.000000 0.461447
v -0.090951 0.589997 0.094062
v -0.652586 0.000000 -0.000000
v -0.135141 0.609146 0.002711
v -0.461448 0.000000 -0.461448
v -0.100402 0.627652 -0.092763
v 0.341742 0.697745 -0.371329
v -0.025223 0.730106 -0.498578
v 0.508519 0.625475 -0.026561
v 0.377412 0.555630 0.333766
v 0.025223 0.529125 0.498577
v -0.341742 0.561486 0.371328
v -0.508519 0.633756 0.026560
v -0.377412 0.703601 -0.333766
v 0.289237 0.665791 -0.319041
v -0.021779 0.693218 -0.426889
v 0.430586 0.604539 -0.026838
v 0.319469 0.545343 0.278552
v 0.020976 0.522879 0.418235
v -0.290040 0.550306 0.310388
v -0.431390 0.611558 0.018184
v -0.320272 0.670754 -0.287206
v 0.225622 0.653109 -0.249919
v -0.017084 0.674512 -0.334080
v 0.335926 0.605310 -0.021894
v 0.249214 0.559116 0.216422
v 0.016281 0.541585 0.325426
v -0.226425 0.562989 0.241265
v -0.336730 0.610787 0.013240
v -0.250018 0.656982 -0.225076
v 0.159833 0.639993 -0.178433
v -0.012228 0.655166 -0.238097
v 0.238030 0.606107 -0.016781
v 0.176558 0.573359 0.152168
v 0.011425 0.560931 0.229444
v -0.160636 0.576104 0.169780
v -0.238833 0.609990 0.008127
v -0.177361 0.642739 -0.160821
v 0.289638 0.687358 -0.314715
v -0.021377 0.714785 -0.422563
v 0.430988 0.626106 -0.022512
v 0.319871 0.566910 0.282878
v 0.021377 0.544446 0.422562
v -0.289638 0.571873 0.314714
v -0.430988 0.633125 0.022511
v -0.319871 0.692321 -0.282879
v 0.226024 0.674675 -0.245593
v -0.016682 0.696079 -0.329753
v 0.336328 0.626877 -0.017568
v 0.249616 0.580682 0.220748
v 0.016682 0.563152 0.329752
v -0.226024 0.584555 0.245592
v -0.336328 0.632354 0.017566
v -0.249616 0.678548 -0.220749
v 0.160234 0.661560 -0.174107
v -0.011826 0.676733 -0.233771
v 0.238432 0.627674 -0.012455
v 0.176959 0.594925 0.156494
v 0.011826 0.582498 0.233770
v -0.160234 0.597671 0.174106
v -0.238432 0.631557 0.012453
v -0.176959 0.664305 -0.156495
v 0.090549 0.647667 -0.098389
v -0.006683 0.656242 -0.132105
v 0.134739 0.628518 -0.007038
v 0.100001 0.610012 0.088436
v 0.006683 0.602989 0.132104
v -0.090549 0.611563 0.098388
v -0.134739 0.630712 0.007037
v -0.100001 0.649219 -0.088437
vt 0.8814 0.8700
vt 0.8726 0.8786
vt 0.8612 0.8738
vt 0.8767 0.8588
vt 0.9020 0.8900
vt 0.9126 0.8947
vt 0.8976 0.9096
vt 0.8929 0.8986
vt 0.8808 0.8993
vt 0.8765 0.9102
vt 0.9045 0.9268
vt 0.9090 0.9390
vt 0.8645 0.9389
vt 0.8697 0.9270
vt 0.9297 0.9020
vt 0.9298 0.8666
vt 0.9421 0.8618
vt 0.9417 0.9074
vt 0.7240 0.9219
vt 0.7840 0.8812
vt 0.8179 0.9195
vt 0.7642 0.9738
vt 0.6800 0.6683
vt 0.7773 0.6811
vt 0.7683 0.7315
vt 0.6745 0.7337
vt 0.7622 0.7823
vt 0.6795 0.7991
vt 0.7655 0.8334
vt 0.6956 0.8627
vt 0.8179 0.5336
vt 0.7982 0.5808
vt 0.7211 0.5441
vt 0.7562 0.4886
vt 0.7866 0.6307
vt 0.6956 0.6046
vt 0.9020 0.8782
vt 0.9123 0.8738
vt 0.8721 0.8910
vt 0.8614 0.8953
vt 0.8936 0.8699
vt 0.8979 0.8589
vt 0.8435 0.8665
vt 0.8443 0.9028
vt 0.8322 0.9077
vt 0.8314 0.8613
vt 0.8698 0.8412
vt 0.8651 0.8289
vt 0.9050 0.8420
vt 0.9104 0.8300
vt 0.9000 0.8790
vt 0.8926 0.8723
vt 0.9031 0.9240
vt 0.9267 0.9010
vt 0.8636 0.8257
vt 0.9116 0.8268
vt 0.8292 0.9092
vt 0.8281 0.8601
vt 0.8756 0.9125
vt 0.8587 0.8967
vt 0.8707 0.9240
vt 0.8823 0.8724
vt 0.8750 0.8797
vt 0.8469 0.8680
vt 0.8472 0.9014
vt 0.9269 0.8679
vt 0.9039 0.8445
vt 0.9101 0.9423
vt 0.8634 0.9415
vt 0.8709 0.8443
vt 0.8995 0.8890
vt 0.8989 0.8561
vt 0.9154 0.8726
vt 0.9453 0.9090
vt 0.8986 0.9123
vt 0.8583 0.8728
vt 0.8755 0.8561
vt 0.9452 0.8604
vt 0.9153 0.8960
vt 0.8917 0.8963
vt 0.8748 0.8899
vt 0.8816 0.8969
vt 0.9137 0.9522
vt 0.8592 0.9511
vt 0.8179 0.8557
vt 0.8599 0.8155
vt 0.9160 0.8171
vt 0.9552 0.8565
vt 0.8192 0.9133
vt 0.9552 0.9135
vn 0.0183 0.9803 0.1967
vn 0.0113 0.2678 0.9634
vn 0.0333 0.2679 0.9629
vn -0.6725 0.2495 0.6968
vn -0.6650 0.2499 0.7038
vn -0.0130 0.2080 -0.9780
vn -0.0342 0.2080 -0.9775
vn 0.6496 0.2107 -0.7305
vn 0.6869 0.2113 -0.6954
vn 0.9724 0.2251 -0.0616
vn 0.9737 0.2276 0.0048
vn 0.7179 0.2531 0.6485
vn 0.6796 0.2555 0.6876
vn -0.9750 0.2223 0.0047
vn -0.9744 0.2230 0.0268
vn -0.6986 0.2100 -0.6840
vn -0.7042 0.2101 -0.6782
vn -0.6711 -0.1338 0.7292
vn 0.0495 -0.1973 0.9791
vn 0.9986 -0.0081 -0.0522
vn 0.7411 -0.1453 0.6554
vn 0.6711 0.1338 -0.7292
vn -0.7411 0.1453 -0.6554
vn -0.9986 0.0081 0.0522
vn -0.0495 0.1973 -0.9791
s 1
f 14/1/1 16/2/1 48/3/1 47/4/1
f 8/5/1 44/6/1 43/7/1 6/8/1
f 4/9/1 6/8/1 43/7/1 41/10/1
f 35/11/1 27/12/1 25/13/1 33/14/1
f 36/15/1 37/16/1 29/17/1 28/18/1
f 9/19/2 21/20/3 22/21/4 11/22/5
f 1/23/6 18/24/7 17/25/8 3/26/9
f 3/26/9 17/25/8 19/27/10 5/28/11
f 5/28/11 19/27/10 20/29/12 7/30/13
f 7/30/13 20/29/12 21/20/3 9/19/2
f 22/31/4 23/32/14 13/33/15 11/34/5
f 23/32/14 24/35/16 15/36/17 13/33/15
f 15/36/17 24/35/16 18/24/7 1/23/6
f 8/5/1 10/37/1 45/38/1 44/6/1
f 16/2/1 2/39/1 42/40/1 48/3/1
f 35/11/1 36/15/1 28/18/1 27/12/1
f 12/41/1 46/42/1 45/38/1 10/37/1
f 40/43/1 34/44/1 26/45/1 32/46/1
f 39/47/1 40/43/1 32/46/1 31/48/1
f 38/49/1 30/50/1 29/17/1 37/16/1
f 34/44/1 33/14/1 25/13/1 26/45/1
f 12/41/1 14/1/1 47/4/1 46/42/1
f 2/39/1 4/9/1 41/10/1 42/40/1
f 39/47/1 31/48/1 30/50/1 38/49/1
f 12/41/18 10/37/19 77/51/19 78/52/18
f 35/11/20 59/53/20 60/54/21 36/15/21
f 31/48/20 55/55/20 54/56/22 30/50/22
f 26/45/19 50/57/19 56/58/21 32/46/21
f 42/40/19 41/10/18 65/59/18 66/60/19
f 33/14/22 57/61/22 59/53/20 35/11/20
f 16/2/23 14/1/24 79/62/24 80/63/23
f 40/43/23 64/64/23 58/65/25 34/44/25
f 38/49/18 37/16/19 61/66/19 62/67/18
f 25/13/18 27/12/24 51/68/24 49/69/18
f 40/43/23 39/47/24 63/70/24 64/64/23
f 8/5/21 76/71/21 77/51/19 10/37/19
f 46/42/22 70/72/22 69/73/25 45/38/25
f 27/12/24 28/18/23 52/74/23 51/68/24
f 41/10/18 43/7/24 67/75/24 65/59/18
f 48/3/21 42/40/19 66/60/19 72/76/21
f 26/45/19 25/13/18 49/69/18 50/57/19
f 48/3/21 72/76/21 71/77/20 47/4/20
f 32/46/21 56/58/21 55/55/20 31/48/20
f 36/15/21 60/54/21 61/66/19 37/16/19
f 30/50/22 54/56/22 53/78/25 29/17/25
f 38/49/18 62/67/18 63/70/24 39/47/24
f 43/7/24 44/6/23 68/79/23 67/75/24
f 44/6/23 45/38/25 69/73/25 68/79/23
f 34/44/25 58/65/25 57/61/22 33/14/22
f 6/8/20 75/80/20 76/71/21 8/5/21
f 16/2/23 80/63/23 74/81/25 2/39/25
f 28/18/23 29/17/25 53/78/25 52/74/23
f 47/4/20 71/77/20 70/72/22 46/42/22
f 4/9/22 73/82/22 75/80/20 6/8/20
f 14/1/24 12/41/18 78/52/18 79/62/24
f 2/39/25 74/81/25 73/82/22 4/9/22
f 51/68/1 19/83/1 17/84/1 49/69/1
f 70/72/1 71/77/1 63/70/1 62/67/1
f 56/58/1 24/85/1 23/86/1 55/55/1
f 67/75/1 59/53/1 57/61/1 65/59/1
f 78/52/1 77/51/1 75/80/1
f 79/62/1 78/52/1 75/80/1 73/82/1
f 54/56/1 22/87/1 21/88/1 53/78/1
f 71/77/1 72/76/1 64/64/1 63/70/1
f 56/58/1 50/57/1 18/89/1 24/85/1
f 70/72/1 62/67/1 61/66/1 69/73/1
f 52/74/1 53/78/1 21/88/1 20/90/1
f 68/79/1 60/54/1 59/53/1 67/75/1
f 68/79/1 69/73/1 61/66/1 60/54/1
f 49/69/1 17/84/1 18/89/1 50/57/1
f 66/60/1 58/65/1 64/64/1 72/76/1
f 66/60/1 65/59/1 57/61/1 58/65/1
f 55/55/1 23/86/1 22/87/1 54/56/1
f 51/68/1 52/74/1 20/90/1 19/83/1
f 74/81/1 80/63/1 79/62/1
f 77/51/1 76/71/1 75/80/1
f 73/82/1 74/81/1 79/62/1
