# Blender v2.77 (sub 0) OBJ File: 'Trees_Cut.blend'
# www.blender.org
o Cylinder.003_Cylinder.014
v -0.000000 0.000000 -0.652586
v 0.042084 0.880734 -0.444235
v 0.461448 0.000000 -0.461448
v 0.344821 0.892404 -0.284397
v 0.652586 0.000000 -0.000000
v 0.445567 0.917417 0.042037
v 0.461448 0.000000 0.461447
v 0.285305 0.941119 0.343846
v -0.000000 0.000000 0.652586
v -0.042084 0.949627 0.444234
v -0.461448 0.000000 0.461447
v -0.344821 0.937956 0.284396
v -0.652586 0.000000 -0.000000
v -0.445567 0.912944 -0.042037
v -0.461448 0.000000 -0.461448
v -0.285305 0.889241 -0.343846
v 0.055325 1.524227 -0.054255
v -0.000000 1.524227 -0.077171
v -0.055325 1.524227 0.056396
v -0.055325 1.524227 -0.054255
v 0.078242 1.524227 0.001071
v 0.055325 1.524227 0.056396
v -0.000000 1.524227 0.079313
v -0.078242 1.524227 0.001071
v 0.291085 1.546227 -0.290015
v -0.000000 1.546227 -0.410586
v -0.291085 1.546227 -0.290015
v 0.291085 1.546227 0.292156
v 0.411657 1.546227 0.001071
v -0.000000 1.546227 0.412728
v -0.291085 1.546227 0.292156
v -0.411657 1.546227 0.001071
v 0.236187 1.524227 -0.235116
v -0.000000 1.524227 -0.332947
v -0.236187 1.524227 -0.235116
v 0.236187 1.524227 0.237257
v 0.334018 1.524227 0.001071
v -0.000000 1.524227 0.335089
v -0.236187 1.524227 0.237257
v -0.334018 1.524227 0.001071
v 0.169158 1.524227 -0.168087
v -0.000000 1.524227 -0.238155
v -0.169158 1.524227 -0.168087
v 0.169158 1.524227 0.170229
v 0.239226 1.524227 0.001071
v -0.000000 1.524227 0.240297
v -0.169158 1.524227 0.170229
v -0.239226 1.524227 0.001071
v 0.099839 1.524227 -0.098768
v -0.000000 1.524227 -0.140122
v -0.099839 1.524227 -0.098768
v 0.099839 1.524227 0.100909
v 0.141193 1.524227 0.001071
v -0.000000 1.524227 0.142264
v -0.099839 1.524227 0.100909
v -0.141193 1.524227 0.001071
v 0.236187 1.546227 -0.235116
v -0.000000 1.546227 -0.332947
v -0.236187 1.546227 -0.235116
v 0.236187 1.546227 0.237257
v 0.334018 1.546227 0.001071
v -0.000000 1.546227 0.335089
v -0.236187 1.546227 0.237257
v -0.334018 1.546227 0.001071
v 0.169158 1.546227 -0.168087
v -0.000000 1.546227 -0.238155
v -0.169158 1.546227 -0.168087
v 0.169158 1.546227 0.170229
v 0.239226 1.546227 0.001071
v -0.000000 1.546227 0.240297
v -0.169158 1.546227 0.170229
v -0.239226 1.546227 0.001071
v 0.099839 1.546227 -0.098768
v -0.000000 1.546227 -0.140122
v -0.099839 1.546227 -0.098768
v 0.099839 1.546227 0.100909
v 0.141193 1.546227 0.001071
v -0.000000 1.546227 0.142264
v -0.099839 1.546227 0.100909
v -0.141193 1.546227 0.001071
v 0.055325 1.546227 -0.054255
v -0.000000 1.546227 -0.077171
v -0.055325 1.546227 -0.054255
v 0.055325 1.546227 0.056396
v 0.078242 1.546227 0.001071
v -0.000000 1.546227 0.079313
v -0.055325 1.546227 0.056396
v -0.078242 1.546227 0.001071
vt 0.9287 0.1938
vt 0.9311 0.2000
vt 0.9196 0.1998
vt 0.9223 0.1936
vt 0.9284 0.1784
vt 0.9220 0.1781
vt 0.9198 0.1723
vt 0.9311 0.1722
vt 0.9391 0.1804
vt 0.9331 0.1830
vt 0.9390 0.1918
vt 0.9332 0.1894
vt 0.9176 0.1826
vt 0.9177 0.1890
vt 0.9117 0.1914
vt 0.9117 0.1802
vt 0.9126 0.1559
vt 0.9078 0.1439
vt 0.9427 0.1438
vt 0.9376 0.1557
vt 0.9438 0.1406
vt 0.9704 0.1670
vt 0.9674 0.1685
vt 0.9706 0.2044
vt 0.9674 0.2033
vt 0.5765 0.3417
vt 0.5907 0.3853
vt 0.4730 0.4278
vt 0.4530 0.3695
vt 0.5985 0.0667
vt 0.6745 0.0868
vt 0.6624 0.1255
vt 0.5798 0.1082
vt 0.5576 0.2490
vt 0.5647 0.2962
vt 0.4401 0.3090
vt 0.4343 0.2471
vt 0.6066 0.4265
vt 0.5002 0.4828
vt 0.6620 0.3584
vt 0.6745 0.3947
vt 0.5652 0.1533
vt 0.4453 0.1216
vt 0.4632 0.0599
vt 0.4906 0.0000
vt 0.5574 0.2008
vt 0.6471 0.2038
vt 0.6449 0.2433
vt 0.4359 0.1844
vt 0.6468 0.2825
vt 0.6525 0.3210
vt 0.6530 0.1644
vt 0.9554 0.1733
vt 0.8950 0.1737
vt 0.8949 0.1988
vt 0.8831 0.2037
vt 0.8830 0.1686
vt 0.9382 0.2160
vt 0.9430 0.2279
vt 0.9082 0.2279
vt 0.9132 0.2159
vt 0.9556 0.1982
vt 0.8798 0.1675
vt 0.9063 0.1408
vt 0.9071 0.2312
vt 0.8800 0.2052
vt 0.9445 0.2309
vt 0.9140 0.1587
vt 0.8979 0.1747
vt 0.9143 0.2130
vt 0.9368 0.2132
vt 0.8978 0.1974
vt 0.9526 0.1972
vt 0.9526 0.1747
vt 0.9366 0.1587
vt 0.9091 0.1793
vt 0.9186 0.1698
vt 0.9320 0.1696
vt 0.9187 0.2024
vt 0.9093 0.1926
vt 0.9324 0.2025
vt 0.9416 0.1927
vt 0.9416 0.1792
vt 0.9229 0.1801
vt 0.9196 0.1833
vt 0.9276 0.1805
vt 0.9197 0.1880
vt 0.9232 0.1915
vt 0.9278 0.1918
vt 0.9311 0.1887
vt 0.9311 0.1840
vt 0.9482 0.1307
vt 0.9805 0.1631
vt 0.8698 0.1631
vt 0.9024 0.1307
vt 0.9805 0.2087
vt 0.9484 0.2410
vt 0.9028 0.2411
vt 0.8699 0.2092
vn 0.0000 1.0000 -0.0000
vn 0.7071 0.0000 0.7071
vn 1.0000 0.0000 -0.0000
vn 0.7071 0.0000 -0.7071
vn 0.6598 0.1376 0.7387
vn -0.0587 0.1364 0.9889
vn -0.0268 0.2136 0.9766
vn 0.6739 0.2150 0.7068
vn -0.7423 0.1380 0.6556
vn -0.7288 0.0565 0.6824
vn -0.9978 0.0566 -0.0347
vn -0.9880 0.1413 -0.0625
vn 0.7370 0.1440 -0.6603
vn 0.9886 0.1408 0.0537
vn 0.9755 0.2191 0.0205
vn 0.7037 0.2242 -0.6742
vn -0.7114 0.2150 0.6691
vn -0.0322 0.0560 0.9979
vn -0.6551 0.1444 -0.7416
vn -0.6675 0.2243 -0.7101
vn -0.9752 0.2191 -0.0317
vn 0.0575 0.1456 -0.9877
vn 0.0337 0.0542 -0.9980
vn 0.7280 0.0551 -0.6833
vn 0.0253 0.2267 -0.9736
vn 0.9979 0.0565 0.0315
vn 0.6829 0.0564 0.7283
vn -0.6805 0.0552 -0.7307
vn -0.7071 0.0000 0.7071
vn 0.0000 0.0000 1.0000
vn -0.7071 0.0000 -0.7071
vn -1.0000 0.0000 -0.0000
vn 0.0000 0.0000 -1.0000
s 1
f 23/1/1 54/2/1 52/3/1 22/4/1
f 20/5/1 18/6/1 50/7/1 51/8/1
f 20/5/1 51/8/1 56/9/1 24/10/1
f 24/10/1 56/9/1 55/11/1 19/12/1
f 17/13/1 21/14/1 53/15/1 49/16/1
f 17/13/1 49/16/1 50/7/1 18/6/1
f 42/17/1 34/18/1 35/19/1 43/20/1
f 35/19/2 59/21/2 64/22/3 40/23/3
f 40/23/3 64/22/3 63/24/4 39/25/4
f 8/26/5 10/27/6 9/28/7 7/29/8
f 12/30/9 31/31/10 32/32/11 14/33/12
f 4/34/13 6/35/14 5/36/15 3/37/16
f 10/27/6 12/38/9 11/39/17 9/28/7
f 10/27/6 30/40/18 31/41/10 12/38/9
f 14/33/12 16/42/19 15/43/20 13/44/21
f 6/35/14 8/26/5 7/29/8 5/36/15
f 12/30/9 14/33/12 13/44/21 11/45/17
f 2/46/22 26/47/23 25/48/24 4/34/13
f 2/46/22 4/34/13 3/37/16 1/49/25
f 6/35/14 29/50/26 28/51/27 8/26/5
f 8/26/5 28/51/27 30/40/18 10/27/6
f 14/33/12 32/32/11 27/52/28 16/42/19
f 16/42/19 2/46/22 1/49/25 15/43/20
f 4/34/13 25/48/24 29/50/26 6/35/14
f 16/42/19 27/52/28 26/47/23 2/46/22
f 43/20/1 35/19/1 40/23/1 48/53/1
f 41/54/1 45/55/1 37/56/1 33/57/1
f 46/58/1 38/59/1 36/60/1 44/61/1
f 48/53/1 40/23/1 39/25/1 47/62/1
f 23/1/1 19/12/1 55/11/1 54/2/1
f 46/58/1 47/62/1 39/25/1 38/59/1
f 44/61/1 36/60/1 37/56/1 45/55/1
f 41/54/1 33/57/1 34/18/1 42/17/1
f 21/14/1 22/4/1 52/3/1 53/15/1
f 33/57/29 57/63/29 58/64/30 34/18/30
f 34/18/30 58/64/30 59/21/2 35/19/2
f 36/60/31 60/65/31 61/66/32 37/56/32
f 38/59/33 62/67/33 60/65/31 36/60/31
f 37/56/32 61/66/32 57/63/29 33/57/29
f 39/25/4 63/24/4 62/67/33 38/59/33
f 42/17/33 66/68/33 65/69/4 41/54/4
f 44/61/2 68/70/2 70/71/30 46/58/30
f 41/54/4 65/69/4 69/72/3 45/55/3
f 46/58/30 70/71/30 71/73/29 47/62/29
f 47/62/29 71/73/29 72/74/32 48/53/32
f 48/53/32 72/74/32 67/75/31 43/20/31
f 49/16/29 73/76/29 74/77/30 50/7/30
f 50/7/30 74/77/30 75/78/2 51/8/2
f 52/3/31 76/79/31 77/80/32 53/15/32
f 54/2/33 78/81/33 76/79/31 52/3/31
f 53/15/32 77/80/32 73/76/29 49/16/29
f 55/11/4 79/82/4 78/81/33 54/2/33
f 56/9/3 80/83/3 79/82/4 55/11/4
f 51/8/2 75/78/2 80/83/3 56/9/3
f 45/55/3 69/72/3 68/70/2 44/61/2
f 43/20/31 67/75/31 66/68/33 42/17/33
f 18/6/33 82/84/33 81/85/4 17/13/4
f 20/5/31 83/86/31 82/84/33 18/6/33
f 21/14/3 85/87/3 84/88/2 22/4/2
f 22/4/2 84/88/2 86/89/30 23/1/30
f 17/13/4 81/85/4 85/87/3 21/14/3
f 23/1/30 86/89/30 87/90/29 19/12/29
f 19/12/29 87/90/29 88/91/32 24/10/32
f 24/10/32 88/91/32 83/86/31 20/5/31
f 73/76/1 65/69/1 66/68/1 74/77/1
f 75/78/1 74/77/1 66/68/1 67/75/1
f 59/21/1 27/92/1 32/93/1 64/22/1
f 57/63/1 25/94/1 26/95/1 58/64/1
f 77/80/1 76/79/1 68/70/1 69/72/1
f 78/81/1 70/71/1 68/70/1 76/79/1
f 85/87/1 82/84/1 88/91/1 86/89/1
f 62/67/1 63/24/1 31/96/1 30/97/1
f 75/78/1 67/75/1 72/74/1 80/83/1
f 61/66/1 60/65/1 28/98/1 29/99/1
f 73/76/1 77/80/1 69/72/1 65/69/1
f 57/63/1 61/66/1 29/99/1 25/94/1
f 80/83/1 72/74/1 71/73/1 79/82/1
f 64/22/1 32/93/1 31/96/1 63/24/1
f 59/21/1 58/64/1 26/95/1 27/92/1
f 62/67/1 30/97/1 28/98/1 60/65/1
f 78/81/1 79/82/1 71/73/1 70/71/1
f 85/87/1 81/85/1 82/84/1
f 82/84/1 83/86/1 88/91/1
f 88/91/1 87/90/1 86/89/1
f 86/89/1 84/88/1 85/87/1
