# Blender v2.77 (sub 0) OBJ File: ''
# www.blender.org
o Cube.015_Cube.040
v -0.722065 0.000000 1.000000
v -0.999998 0.000000 0.722067
v 1.000002 0.000000 0.722067
v 0.722069 0.000000 1.000000
v 0.722069 0.000000 -1.000000
v 1.000002 0.000000 -0.722067
v -1.503351 8.861399 1.225420
v -1.217979 8.730453 1.495915
v -0.115143 9.477530 1.538351
v 1.172154 3.030699 0.894219
v 0.919716 3.479527 1.197647
v 0.599044 9.477530 1.538351
v 1.331730 5.839979 -1.053795
v 1.101028 6.671484 -1.378960
v 0.850806 9.930359 -0.695186
v 1.010380 7.691138 -1.436879
v -1.194281 8.313231 -1.472216
v -1.479456 8.440727 -1.201524
v -1.024281 8.491659 -1.482351
v 0.022869 9.930359 1.110514
v -0.200986 9.822517 1.212404
v -1.520598 9.165037 0.972395
v 0.123549 9.930359 -0.809417
v -0.719954 9.506884 -1.086915
v -1.518106 9.121158 -0.770670
v 0.853523 9.808111 1.226015
v 0.744036 9.930359 1.110514
v 1.493652 8.690594 0.456417
v 1.499125 8.786940 -0.459998
v 1.278778 9.485851 -0.780172
v 1.322330 9.350618 0.659414
v -0.755396 0.586779 -1.033331
v -0.999998 0.000000 -0.408702
v -0.380411 0.000000 -1.000000
v -1.032032 0.563942 -0.754100
vt 0.9374 0.0008
vt 0.9546 0.3841
vt 0.9374 0.3899
vt 0.9238 0.9513
vt 0.9410 0.6948
vt 0.9410 0.9878
vt 0.8187 0.2850
vt 0.8187 0.0217
vt 0.8773 0.2459
vt 0.6813 0.3875
vt 0.6826 0.0041
vt 0.7625 0.1526
vt 0.5909 0.9836
vt 0.5979 0.9517
vt 0.6553 0.9625
vt 0.3862 0.5074
vt 0.4569 0.3745
vt 0.4715 0.6305
vt 0.9844 0.8466
vt 0.9672 0.7135
vt 0.9844 0.7135
vt 0.7346 0.9492
vt 0.7376 0.9388
vt 0.7557 0.9388
vt 0.0809 0.8214
vt 0.0397 0.8339
vt 0.0652 0.7330
vt 0.2715 0.9835
vt 0.2967 0.9562
vt 0.3030 0.9835
vt 0.1127 0.8162
vt 0.0761 0.7374
vt 0.1077 0.7372
vt 0.3811 0.7813
vt 0.3145 0.8332
vt 0.3568 0.7328
vt 0.0470 0.9557
vt 0.0008 0.9863
vt 0.0066 0.9557
vt 0.1147 0.7320
vt 0.1439 0.7562
vt 0.4345 0.8874
vt 0.4726 0.7612
vt 0.4865 0.7991
vt 0.1646 0.3708
vt 0.1841 0.0255
vt 0.2708 0.3892
vt 0.2472 0.7443
vt 0.2644 0.4040
vt 0.2644 0.7499
vt 0.3862 0.2932
vt 0.4028 0.0008
vt 0.4674 0.0265
vt 0.3104 0.9842
vt 0.3378 0.9562
vt 0.3378 0.9937
vt 0.9546 0.0008
vt 0.9238 0.6948
vt 0.8680 0.2756
vt 0.8374 0.2981
vt 0.8344 0.0008
vt 0.7625 0.4159
vt 0.7313 0.4176
vt 0.7457 0.0008
vt 0.6563 0.9836
vt 0.5875 0.9666
vt 0.4455 0.7597
vt 0.4054 0.7555
vt 0.3937 0.3745
vt 0.9672 0.8663
vt 0.7784 0.9658
vt 0.7505 0.9961
vt 0.0008 0.7441
vt 0.0008 0.8205
vt 0.3078 0.9761
vt 0.2617 0.9770
vt 0.2654 0.9562
vt 0.3151 0.7223
vt 0.3811 0.7540
vt 0.2723 0.7473
vt 0.0641 0.9863
vt 0.1398 0.8193
vt 0.4865 0.8440
vt 0.4485 0.9195
vt 0.2597 0.4025
vt 0.1834 0.4006
vt 0.1993 0.0008
vt 0.2488 0.0008
vt 0.2472 0.4050
vt 0.4866 0.3652
vt 0.4792 0.3730
vt 0.3901 0.3379
vt 0.4510 0.0008
vt 0.3093 0.9671
vn -0.7048 -0.0801 0.7048
vn 0.7048 -0.0801 -0.7048
vn 0.7725 0.0052 0.6350
vn 0.0000 -0.0567 0.9984
vn -0.4129 0.5691 0.7111
vn 0.9984 -0.0567 0.0000
vn 0.7048 -0.0801 0.7048
vn -0.5066 0.4405 -0.7412
vn -0.2508 0.9679 -0.0132
vn -0.4424 0.8965 -0.0232
vn 0.0000 0.6868 0.7269
vn 0.4032 0.9148 0.0238
vn -0.2585 0.9659 -0.0136
vn 0.4467 0.8943 0.0264
vn 0.1470 0.3204 -0.9358
vn 0.9587 0.2842 0.0083
vn 0.9636 0.2669 0.0178
vn 0.9697 0.2421 0.0312
vn 0.7238 0.6887 0.0428
vn 0.8699 0.0495 -0.4907
vn -0.9984 -0.0567 0.0000
vn -0.7048 -0.0801 -0.7048
vn 0.0000 -0.0567 -0.9984
vn -0.6219 -0.4344 -0.6516
vn 0.9538 0.3004 -0.0006
s 1
f 2/1/1 8/2/1 7/3/1
f 13/4/2 5/5/2 14/6/2
f 12/7/3 11/8/3 28/9/3
f 8/10/4 1/11/4 11/12/4
f 22/13/5 8/14/5 9/15/5
f 10/16/6 6/17/6 13/18/6
f 10/19/7 4/20/7 3/21/7
f 19/22/8 17/23/8 18/24/8
f 23/25/9 24/26/10 21/27/10
f 20/28/11 12/29/11 27/30/11
f 15/31/12 20/32/13 27/33/14
f 30/34/15 16/35/15 23/36/15
f 29/37/16 31/38/17 28/39/18
f 27/33/14 26/40/19 31/41/19
f 29/42/20 13/43/20 14/44/20
f 18/45/21 35/46/21 7/47/21
f 17/48/22 35/49/22 18/50/22
f 14/51/23 5/52/23 32/53/23
f 35/54/24 34/55/24 33/56/24
f 2/1/1 1/57/1 8/2/1
f 13/4/2 6/58/2 5/5/2
f 28/9/3 31/59/3 12/7/3
f 26/60/3 12/7/3 31/59/3
f 11/8/3 10/61/3 28/9/3
f 11/12/4 12/62/4 8/10/4
f 9/63/4 8/10/4 12/62/4
f 1/11/4 4/64/4 11/12/4
f 9/15/5 21/65/5 22/13/5
f 22/13/5 7/66/5 8/14/5
f 13/18/6 29/67/6 28/68/6
f 28/68/6 10/16/6 13/18/6
f 3/69/6 6/17/6 10/16/6
f 10/19/7 11/70/7 4/20/7
f 18/24/8 25/71/8 19/22/8
f 24/72/8 19/22/8 25/71/8
f 22/73/10 21/27/10 24/26/10
f 20/32/13 23/25/9 21/27/10
f 24/26/10 25/74/10 22/73/10
f 26/75/11 27/30/11 12/29/11
f 20/28/11 21/76/11 9/77/11
f 9/77/11 12/29/11 20/28/11
f 15/31/12 23/25/9 20/32/13
f 24/78/15 23/36/15 16/35/15
f 15/79/15 30/34/15 23/36/15
f 16/35/15 19/80/15 24/78/15
f 29/37/16 30/81/25 31/38/17
f 31/41/19 30/82/19 15/31/12
f 15/31/12 27/33/14 31/41/19
f 14/44/20 16/83/20 29/42/20
f 30/84/20 29/42/20 16/83/20
f 7/47/21 22/85/21 25/86/21
f 25/86/21 18/45/21 7/47/21
f 35/46/21 33/87/21 2/88/21
f 2/88/21 7/47/21 35/46/21
f 17/48/22 32/89/22 35/49/22
f 17/90/23 19/91/23 16/92/23
f 16/92/23 14/51/23 17/90/23
f 5/52/23 34/93/23 32/53/23
f 32/53/23 17/90/23 14/51/23
f 35/54/24 32/94/24 34/55/24
