# Blender v2.77 (sub 0) OBJ File: ''
# www.blender.org
o Cube.010_Cube.020
v -1.161072 0.000000 -2.054887
v 1.928453 0.000000 -0.383224
v 1.928453 1.804670 -1.300351
v 1.595196 2.452032 -2.054887
v 0.619334 0.000000 -2.054887
v 0.997273 0.000000 2.020035
v 1.928453 0.000000 0.610642
v -1.186187 0.000000 2.020035
v 1.928453 0.154914 0.705909
v 1.078770 0.200579 2.020035
v 1.128104 1.787863 2.020035
v 1.050152 3.454864 -2.054887
v 1.294785 3.901985 -1.546566
v -1.389646 1.132895 -2.054887
v -2.146467 1.085731 -1.427561
v 0.713406 3.432778 -2.054887
v 1.928453 2.796139 0.052395
v 1.107609 2.453017 1.872993
v 1.928453 1.749704 0.782443
v 1.395242 4.455103 -0.115110
v 1.277220 4.323756 -1.047860
v -2.146467 2.324314 -0.432040
v 0.349215 4.210413 -1.109742
v 0.551112 4.373714 -0.932793
v -1.432362 0.000000 -1.832809
v -2.146467 0.627501 -1.351879
v -2.146467 0.442006 1.337283
v -1.693904 0.000000 1.675108
v 0.911805 3.212460 1.720344
v 0.692549 4.518465 -0.152642
v -2.146467 2.372393 0.607486
v -2.146467 1.757595 1.246897
v -0.579841 3.602385 1.177092
v -0.766992 2.583087 2.016330
v -0.485994 3.320044 1.581487
v -1.409687 1.853446 2.016712
vt 0.7452 0.9583
vt 0.7022 0.8801
vt 0.7606 0.9387
vt 0.9018 0.2918
vt 0.8989 0.3831
vt 0.8605 0.3776
vt 0.9076 0.2895
vt 0.9030 0.3879
vt 0.5304 0.0099
vt 0.5190 0.0409
vt 0.4944 0.0077
vt 0.7859 0.8879
vt 0.7331 0.7637
vt 0.7051 0.7763
vt 0.7058 0.7606
vt 0.4720 0.0499
vt 0.5221 0.0710
vt 0.8389 0.4128
vt 0.9076 0.4373
vt 0.5737 0.0659
vt 0.6551 0.0000
vt 0.7036 0.0965
vt 0.5558 0.1227
vt 0.5159 0.1256
vt 0.5493 0.0094
vt 0.9085 0.5656
vt 0.9493 0.6025
vt 0.9027 0.6260
vt 0.9062 0.5118
vt 0.9398 0.5694
vt 0.8979 0.5448
vt 0.0952 0.9818
vt 0.0533 0.8077
vt 0.0952 0.7766
vt 0.6221 0.1954
vt 0.5360 0.2277
vt 0.5209 0.2346
vt 0.4712 0.1704
vt 0.8866 0.6569
vt 0.9537 0.7451
vt 0.9106 0.7502
vt 0.8776 0.7291
vt 0.6152 0.2182
vt 0.7002 0.1921
vt 0.6591 0.2379
vt 0.7022 0.9579
vt 0.8484 0.2977
vt 0.8634 0.2917
vt 0.7859 0.9076
vt 0.7229 0.7198
vt 0.7340 0.7201
vt 0.4770 0.1312
vt 0.8687 0.4810
vt 0.6972 0.0352
vt 0.5632 0.0769
vt 0.9482 0.6383
vt 0.9431 0.4810
vt 0.9537 0.4837
vt 0.0657 0.9641
vt 0.7036 0.1569
vt 0.9490 0.7489
vt 0.8955 0.7441
vt 0.6269 0.2409
vn 0.9422 -0.0554 -0.3305
vn 0.3420 -0.1361 -0.9298
vn 0.6402 0.0756 -0.7645
vn 0.5076 -0.1129 0.8541
vn 0.9395 -0.1189 0.3213
vn 0.9464 0.0880 0.3106
vn 0.3695 -0.1498 0.9171
vn 0.9749 -0.1165 0.1894
vn 0.2353 0.4258 -0.8737
vn 0.5631 0.6140 -0.5530
vn -0.2088 0.4324 -0.8772
vn -0.4167 0.1655 -0.8939
vn -0.2969 -0.0599 -0.9530
vn -0.7118 -0.3381 -0.6157
vn 0.5191 0.7572 -0.3964
vn 0.9638 0.2325 0.1306
vn 0.9654 -0.1181 -0.2324
vn -0.4377 0.7777 -0.4511
vn -0.8542 0.4571 -0.2479
vn -0.1963 0.9673 0.1604
vn 0.5937 0.7824 0.1878
vn -0.8856 0.2087 0.4148
vn -0.7289 -0.2899 0.6202
vn -0.4581 0.2159 0.8623
vn -0.8769 -0.3001 0.3753
vn -0.8675 0.4682 0.1676
vn -0.8785 -0.3390 -0.3366
vn -0.4239 0.8211 0.3823
vn 0.4041 0.5255 0.7487
vn 0.5442 0.2600 0.7976
vn -0.2921 0.3769 0.8790
vn 0.4851 0.0777 0.8710
vn -0.2858 0.6718 0.6834
vn -0.8575 0.1502 -0.4920
vn -0.2735 0.9092 -0.3137
vn -0.2730 -0.0314 0.9615
s 1
f 3/1/1 5/2/2 4/3/3
f 10/4/4 9/5/5 19/6/6
f 9/5/5 6/7/7 7/8/8
f 12/9/9 13/10/10 4/11/3
f 16/12/11 5/2/2 14/13/12
f 14/13/12 1/14/13 25/15/14
f 3/16/1 13/10/10 21/17/15
f 17/18/16 7/8/8 2/19/17
f 23/20/18 14/21/12 22/22/19
f 21/17/15 30/23/20 20/24/21
f 16/25/11 23/20/18 13/10/10
f 32/26/22 28/27/23 36/28/24
f 22/29/19 27/30/25 31/31/26
f 28/32/23 26/33/27 25/34/14
f 33/35/28 23/20/18 22/22/19
f 29/36/29 18/37/30 19/38/6
f 34/39/31 6/40/7 11/41/32
f 34/39/31 11/41/32 29/42/29
f 33/35/28 35/43/33 29/36/29
f 33/35/28 32/44/22 36/45/24
f 3/1/1 2/46/17 5/2/2
f 19/6/6 18/47/30 11/48/32
f 11/48/32 10/4/4 19/6/6
f 9/5/5 10/4/4 6/7/7
f 1/14/13 14/13/12 5/2/2
f 16/12/11 12/49/9 4/3/3
f 4/3/3 5/2/2 16/12/11
f 25/15/14 26/50/27 15/51/34
f 15/51/34 14/13/12 25/15/14
f 21/17/15 20/24/21 17/52/16
f 17/52/16 3/16/1 21/17/15
f 4/11/3 13/10/10 3/16/1
f 2/19/17 3/53/1 17/18/16
f 17/18/16 19/6/6 7/8/8
f 9/5/5 7/8/8 19/6/6
f 15/54/34 22/22/19 14/21/12
f 23/20/18 16/25/11 14/21/12
f 21/17/15 24/55/35 30/23/20
f 21/17/15 13/10/10 24/55/35
f 12/9/9 16/25/11 13/10/10
f 23/20/18 24/55/35 13/10/10
f 8/56/36 36/28/24 28/27/23
f 32/26/22 27/30/25 28/27/23
f 32/26/22 31/31/26 27/30/25
f 22/29/19 15/57/34 26/58/27
f 26/58/27 27/30/25 22/29/19
f 28/32/23 27/59/25 26/33/27
f 22/22/19 31/60/26 33/35/28
f 33/35/28 30/23/20 23/20/18
f 24/55/35 23/20/18 30/23/20
f 19/38/6 17/52/16 20/24/21
f 20/24/21 29/36/29 19/38/6
f 10/61/4 11/41/32 6/40/7
f 34/39/31 36/28/24 8/56/36
f 8/56/36 6/40/7 34/39/31
f 18/62/30 29/42/29 11/41/32
f 35/43/33 34/63/31 29/36/29
f 29/36/29 20/24/21 30/23/20
f 30/23/20 33/35/28 29/36/29
f 36/45/24 34/63/31 33/35/28
f 35/43/33 33/35/28 34/63/31
f 31/60/26 32/44/22 33/35/28
