# Blender v2.77 (sub 0) OBJ File: ''
# www.blender.org
o Cube.007_Cube.017
v -2.000632 2.385888 -1.029999
v -2.000632 0.000000 -1.282881
v -1.015237 0.000000 -2.089528
v -1.509967 1.170622 -2.089528
v -2.000632 1.278067 -1.725040
v 2.074288 0.000000 -0.417864
v 2.074288 0.861551 -1.334991
v 0.765169 0.000000 -2.089528
v 2.074288 0.000000 0.576002
v -2.000632 0.000000 1.333010
v -2.000632 1.498367 1.584504
v -1.779353 1.858952 1.795357
v -1.040351 0.000000 1.985393
v -1.379827 1.374055 1.985393
v -0.197339 2.437365 -2.089528
v 1.143109 -0.000000 1.985393
v -1.921745 2.806920 -0.813611
v -1.400735 2.895881 1.275917
v 0.820053 2.983428 -1.434690
v 0.107464 2.920031 -1.971252
v 1.352234 0.704220 -2.089528
v 2.054247 0.880138 -1.380370
v 1.095488 1.804767 -2.089528
v 1.261830 2.070910 -1.871515
v 1.134586 3.048974 0.298407
v 2.074288 1.541862 0.609299
v 0.649828 0.975944 1.985393
v 1.239905 0.330796 1.985393
v 2.074288 1.261971 0.790690
v 0.131989 2.997403 1.042243
vt 0.4687 0.2745
vt 0.5326 0.2411
vt 0.4731 0.3424
vt 0.9790 0.4803
vt 0.9541 0.4363
vt 0.9790 0.4086
vt 0.9154 0.0231
vt 0.9745 0.0133
vt 0.9613 0.0974
vt 0.9630 0.1651
vt 0.9745 0.2714
vt 0.9483 0.2480
vt 0.9237 0.1065
vt 0.9279 0.1495
vt 0.6795 0.2485
vt 0.6927 0.2594
vt 0.6663 0.2748
vt 0.3447 0.7856
vt 0.3784 0.7805
vt 0.3515 0.7955
vt 0.1277 0.7792
vt 0.1321 0.8750
vt 0.1011 0.8631
vt 0.7024 0.2850
vt 0.5127 0.3980
vt 0.4852 0.4277
vt 0.4719 0.4194
vt 0.5128 0.4810
vt 0.6121 0.4174
vt 0.9796 0.9995
vt 0.9589 0.9850
vt 0.9537 0.9304
vt 0.3360 0.8709
vt 0.3956 0.8147
vt 0.3956 0.9186
vt 0.7023 0.4027
vt 0.6355 0.4810
vt 0.0952 0.8718
vt 0.1367 0.9244
vt 0.5462 0.2435
vt 0.6540 0.3613
vt 0.4814 0.3573
vt 0.4896 0.2464
vt 0.9518 0.4712
vt 0.9458 0.0000
vt 0.9670 0.2763
vt 0.9150 0.1243
vt 0.9045 0.0342
vt 0.3732 0.7389
vt 0.1367 0.7766
vt 0.3241 0.8530
vt 0.5102 0.4797
vt 0.6260 0.4793
vt 0.9542 0.9275
vt 0.9796 0.8794
vt 0.3670 0.9475
vt 0.7007 0.4397
vt 0.1204 0.9690
vn -0.3989 0.0786 -0.9136
vn -0.8608 0.3063 -0.4064
vn -0.1988 0.2754 -0.9405
vn -0.9305 -0.1197 -0.3461
vn -0.2550 -0.1078 -0.9609
vn -0.9016 -0.0716 0.4265
vn -0.2510 -0.0620 0.9660
vn 0.3992 -0.1168 0.9094
vn 0.2388 0.2912 0.9264
vn -0.8884 0.0656 0.4544
vn -0.2197 0.1199 0.9682
vn -0.5467 0.3530 0.7592
vn -0.3687 0.7792 0.5067
vn 0.6516 0.4675 -0.5974
vn 0.4811 -0.1830 -0.8573
vn 0.3526 0.1913 -0.9160
vn 0.5143 0.0526 0.8560
vn 0.9677 -0.0518 0.2468
vn 0.8683 0.2024 0.4527
vn 0.4447 0.8391 -0.3134
vn 0.9380 -0.0544 -0.3424
vn 0.5144 0.8304 0.2141
vn 0.2526 -0.2106 -0.9443
vn 0.8727 0.0006 -0.4882
vn 0.8748 0.3870 0.2914
vn 0.9725 -0.1696 -0.1593
vn -0.6669 0.7084 -0.2309
vn 0.1665 0.8319 0.5293
vn -0.0008 0.7454 -0.6666
vn -0.8302 0.1107 -0.5464
s 1
f 4/1/1 1/2/2 15/3/3
f 2/4/4 4/5/1 3/6/5
f 1/7/2 2/8/4 10/9/6
f 13/10/7 16/11/8 27/12/9
f 11/13/10 10/9/6 14/14/11
f 11/15/10 12/16/12 18/17/13
f 24/18/14 21/19/15 23/20/16
f 28/21/17 9/22/18 29/23/19
f 18/17/13 12/16/12 14/24/11
f 19/25/20 24/26/14 23/27/16
f 7/28/21 19/25/20 25/29/22
f 8/30/23 21/31/15 22/32/24
f 15/33/3 8/34/23 3/35/5
f 25/29/22 27/36/9 29/37/19
f 26/38/25 9/22/18 6/39/26
f 17/40/27 30/41/28 19/25/20
f 17/40/27 20/42/29 15/3/3
f 15/3/3 1/2/2 17/40/27
f 5/43/30 1/2/2 4/1/1
f 2/4/4 5/44/30 4/5/1
f 10/9/6 11/13/10 1/7/2
f 1/7/2 5/45/30 2/8/4
f 28/46/17 27/12/9 16/11/8
f 14/14/11 13/10/7 27/12/9
f 13/10/7 14/14/11 10/9/6
f 12/47/12 11/13/10 14/14/11
f 18/17/13 17/40/27 11/15/10
f 1/7/2 11/13/10 17/48/27
f 24/18/14 22/49/24 21/19/15
f 28/21/17 16/50/8 9/22/18
f 14/24/11 27/36/9 30/41/28
f 30/41/28 18/17/13 14/24/11
f 23/20/16 15/33/3 20/51/29
f 20/42/29 19/25/20 23/27/16
f 19/25/20 7/28/21 22/52/24
f 26/53/25 7/28/21 25/29/22
f 22/52/24 24/26/14 19/25/20
f 22/32/24 7/54/21 8/30/23
f 6/55/26 8/30/23 7/54/21
f 3/35/5 4/56/1 15/33/3
f 15/33/3 23/20/16 8/34/23
f 21/19/15 8/34/23 23/20/16
f 29/37/19 26/53/25 25/29/22
f 25/29/22 30/41/28 27/36/9
f 27/36/9 28/57/17 29/37/19
f 6/39/26 7/58/21 26/38/25
f 26/38/25 29/23/19 9/22/18
f 25/29/22 19/25/20 30/41/28
f 20/42/29 17/40/27 19/25/20
f 18/17/13 30/41/28 17/40/27
