# Blender v2.77 (sub 0) OBJ File: ''
# www.blender.org
o Circle.001_Circle.008
v 0.826615 0.983295 -0.473575
v 0.000000 0.983295 -0.950821
v 0.000000 1.090701 -1.100888
v 0.956577 1.090701 -0.548608
v 0.000000 0.983295 0.958165
v 0.826615 0.983295 0.480918
v 0.956577 1.090701 0.555952
v 0.000000 1.090701 1.108232
v -0.826615 0.983295 -0.473575
v -0.826615 0.983295 0.480919
v -0.956577 1.090701 0.555952
v -0.956577 1.090701 -0.548608
v 0.784152 1.444126 0.456402
v 0.784152 1.444126 -0.449059
v -0.784152 1.444126 0.456403
v 0.000000 1.444126 0.909133
v 0.000000 1.444126 -0.901789
v 0.548591 1.697540 0.320401
v 0.000000 1.697540 0.637130
v -0.548591 1.697540 0.320401
v -0.548591 1.697540 -0.313057
v -0.784152 1.444126 -0.449059
v 0.548591 1.697540 -0.313057
v 0.000000 1.697540 -0.629787
v 0.000000 1.808942 0.003672
v -0.117446 1.095916 -0.106949
v 0.000000 1.095916 -0.174756
v 0.000000 1.095916 -0.174756
v -0.117446 1.095916 -0.106949
v 0.117446 1.095916 -0.106949
v 0.117446 1.095916 -0.106949
v 0.117446 1.095916 0.028666
v 0.000000 1.095916 0.096474
v 0.000000 1.095916 0.096474
v 0.117446 1.095916 0.028666
v -0.117446 1.095916 0.028666
v -0.117446 1.095916 0.028666
v -0.020941 -0.000604 -0.328657
v 0.015025 0.355397 -0.313555
v 0.268618 0.355397 -0.167143
v 0.241575 -0.000604 -0.178659
v 0.241575 -0.000604 0.124469
v 0.268618 0.355397 0.125681
v 0.015025 0.355397 0.272094
v -0.020941 -0.000604 0.277599
v -0.283458 -0.000604 0.127303
v -0.238569 0.355397 0.125681
v -0.238569 0.355397 -0.167143
v -0.283458 -0.000604 -0.175825
v 0.202766 0.751079 -0.206074
v 0.202766 0.751175 0.052371
v -0.020941 0.751220 0.180890
v -0.244648 0.751166 0.050775
v -0.244648 0.751065 -0.207791
v -0.020941 0.751023 -0.336111
v 0.190745 1.189240 -0.105625
v 0.190745 1.189240 0.138808
v -0.020941 1.189240 0.261025
v -0.232627 1.189240 0.138808
v -0.232627 1.189240 -0.105625
v -0.020941 1.189240 -0.227842
v -0.006821 0.958061 0.280334
v -0.026254 0.775431 0.345156
v 0.319332 0.775431 0.143095
v 0.281529 0.955987 0.113855
v -0.295170 0.951979 -0.219102
v -0.371840 0.775431 -0.249192
v -0.371840 0.775431 0.148982
v -0.295170 0.955987 0.113855
v 0.319332 0.775431 -0.254901
v 0.281529 0.951979 -0.219102
v -0.006821 0.950042 -0.385581
v -0.026254 0.775431 -0.451019
v 0.256871 1.194790 -0.246450
v -0.020941 1.192806 -0.406845
v -0.298754 1.194790 -0.246450
v -0.298754 1.198560 0.074340
v -0.020941 1.200352 0.234735
v 0.256871 1.198560 0.074340
v 0.000000 1.074445 -0.536431
v 0.449638 1.074445 -0.276832
v 0.449638 1.074445 0.242365
v 0.000000 1.074445 0.501964
v -0.449638 1.074445 0.242365
v -0.449638 1.074445 -0.276832
vt 0.3523 0.0007
vt 0.5549 0.0822
vt 0.5568 0.1235
vt 0.3223 0.0292
vt 0.0002 0.4223
vt 0.0037 0.2066
vt 0.0412 0.1902
vt 0.0371 0.4399
vt 0.5749 0.5437
vt 0.3902 0.6507
vt 0.3572 0.6273
vt 0.5710 0.5035
vt 0.0884 0.0785
vt 0.2928 0.0002
vt 0.0858 0.1198
vt 0.2529 0.6507
vt 0.0682 0.5419
vt 0.0725 0.5016
vt 0.2862 0.6275
vt 0.6369 0.2068
vt 0.6437 0.4217
vt 0.6072 0.4398
vt 0.5994 0.1911
vt 0.1503 0.2145
vt 0.3215 0.1350
vt 0.3221 0.5224
vt 0.1470 0.4192
vt 0.4910 0.2169
vt 0.2253 0.2671
vt 0.2287 0.3786
vt 0.3273 0.4317
vt 0.4204 0.3726
vt 0.4974 0.4208
vt 0.3163 0.2125
vt 0.4111 0.2628
vt 0.6441 0.5556
vt 0.7624 0.4873
vt 0.7624 0.6239
vt 0.8807 0.4190
vt 0.7624 0.3507
vt 0.6441 0.4190
vt 0.8807 0.5556
vt 0.7299 0.6642
vt 0.7282 0.6925
vt 0.7276 0.6922
vt 0.7294 0.6645
vt 0.7051 0.7093
vt 0.7050 0.7087
vt 0.6808 0.6954
vt 0.6808 0.6667
vt 0.6813 0.6669
vt 0.6813 0.6951
vt 0.7050 0.6511
vt 0.7051 0.6517
vt 0.6980 0.0189
vt 0.7209 0.0829
vt 0.6784 0.0993
vt 0.6441 0.0443
vt 0.9277 0.0178
vt 0.9061 0.0811
vt 0.8611 0.0710
vt 0.8709 0.0044
vt 0.8133 0.0002
vt 0.8137 0.0693
vt 0.7663 0.0719
vt 0.7554 0.0049
vt 0.9478 0.0962
vt 0.9806 0.0419
vt 0.9059 0.2261
vt 0.8763 0.2214
vt 0.8457 0.2186
vt 0.8144 0.2179
vt 0.7833 0.2194
vt 0.7528 0.2230
vt 0.7237 0.2283
vt 0.8970 0.3503
vt 0.8695 0.3485
vt 0.8422 0.3473
vt 0.8150 0.3468
vt 0.7879 0.3472
vt 0.7609 0.3484
vt 0.7341 0.3503
vt 0.5001 0.7004
vt 0.4932 0.6546
vt 0.5406 0.6511
vt 0.5411 0.6978
vt 0.4226 0.7210
vt 0.4032 0.6811
vt 0.4470 0.6645
vt 0.4600 0.7083
vt 0.5883 0.6542
vt 0.5822 0.7006
vt 0.6222 0.7090
vt 0.6352 0.6641
vt 0.6804 0.6817
vt 0.6595 0.7225
vt 0.5751 0.7566
vt 0.6084 0.7630
vt 0.6403 0.7732
vt 0.4739 0.7631
vt 0.5073 0.7567
vt 0.5413 0.7545
vt 0.4410 0.7732
vt 0.2155 0.8500
vt 0.2297 0.8256
vt 0.3098 0.8257
vt 0.2554 0.9194
vt 0.1733 0.8253
vt 0.1873 0.8499
vt 0.1471 0.9191
vt 0.0933 0.8252
vt 0.2157 0.8011
vt 0.1875 0.8010
vt 0.1476 0.7316
vt 0.2559 0.7319
vt 0.3022 0.9998
vt 0.1008 0.9998
vt 0.0002 0.8255
vt 0.1008 0.6511
vt 0.3022 0.6511
vt 0.4028 0.8255
vn 0.5040 -0.8132 -0.2910
vn 0.0000 -0.8132 -0.5820
vn 0.0000 -0.1819 -0.9833
vn 0.8516 -0.1819 -0.4917
vn -0.0000 -0.8132 0.5820
vn 0.5040 -0.8132 0.2910
vn 0.8516 -0.1819 0.4917
vn -0.0000 -0.1819 0.9833
vn -0.5040 -0.8132 -0.2910
vn -0.5040 -0.8132 0.2910
vn -0.8516 -0.1819 0.4917
vn -0.8516 -0.1819 -0.4917
vn 0.6957 0.5955 0.4017
vn 0.6957 0.5955 -0.4017
vn -0.6957 0.5955 0.4017
vn 0.0000 0.5955 0.8033
vn 0.0000 0.5955 -0.8033
vn 0.4457 0.8574 0.2573
vn 0.0000 0.8574 0.5146
vn -0.4457 0.8574 0.2573
vn -0.4457 0.8574 -0.2573
vn -0.6957 0.5955 -0.4017
vn 0.4457 0.8574 -0.2573
vn 0.0000 0.8574 -0.5146
vn 0.0000 1.0000 0.0000
vn 0.0386 -0.7870 0.6157
vn 0.0000 -0.7765 0.6301
vn 0.0000 0.0000 1.0000
vn 0.0000 0.0000 0.0000
vn -0.0386 -0.7870 0.6157
vn -0.0388 -0.8086 0.5870
vn 0.0000 -0.8197 0.5728
vn 0.0388 -0.8086 0.5870
vn -0.0334 0.0458 -0.9984
vn 0.0307 -0.0073 -0.9995
vn 0.8828 0.0248 -0.4691
vn 0.8535 -0.0492 -0.5188
vn 0.8590 -0.0659 0.5078
vn 0.8610 0.0800 0.5022
vn 0.0294 0.1160 0.9928
vn -0.0297 0.0184 0.9994
vn -0.8689 0.1109 0.4823
vn -0.8436 0.0991 0.5277
vn -0.8688 0.0305 -0.4943
vn -0.8661 0.1219 -0.4847
vn 0.8323 0.1148 -0.5423
vn 0.8831 0.0874 0.4609
vn -0.0171 0.0229 0.9996
vn -0.8941 0.0033 0.4479
vn -0.8444 0.0401 -0.5342
vn -0.0132 0.0872 -0.9961
vn 0.8882 0.1261 -0.4418
vn 0.8334 -0.0853 0.5461
vn -0.0013 -0.1801 0.9836
vn -0.8336 -0.0862 0.5455
vn -0.8880 0.1270 -0.4419
vn 0.0015 0.2398 -0.9708
vn 0.0293 0.2661 0.9635
vn -0.0224 0.3395 0.9403
vn 0.8332 0.2574 0.4894
vn 0.8437 0.2160 0.4914
vn -0.8500 0.1982 -0.4881
vn -0.7935 0.4205 -0.4400
vn -0.7901 0.4201 0.4463
vn -0.8199 0.2652 0.5074
vn 0.8227 0.2725 -0.4989
vn 0.8704 0.1612 -0.4652
vn 0.0268 0.1450 -0.9891
vn -0.0300 0.3527 -0.9353
vn 0.8426 0.0250 -0.5379
vn -0.0177 -0.0882 -0.9959
vn -0.8517 -0.0711 -0.5192
vn -0.8862 0.0617 0.4592
vn -0.0195 0.1837 0.9828
vn 0.8681 0.1646 0.4683
vn -0.0000 -0.9866 0.1629
vn -0.1362 -0.9873 0.0824
vn -0.1329 -0.9884 -0.0733
vn -0.0000 -0.9890 -0.1482
vn 0.1329 -0.9884 -0.0733
vn 0.1362 -0.9873 0.0824
vn -0.1826 -0.9778 0.1032
vn -0.1726 -0.9797 -0.1017
vn -0.0000 -0.9806 -0.1959
vn 0.1726 -0.9797 -0.1017
vn 0.1826 -0.9778 0.1032
vn -0.0000 -0.9767 0.2148
s 1
f 1/1/1 2/2/2 3/3/3 4/4/4
f 5/5/5 6/6/6 7/7/7 8/8/8
f 9/9/9 10/10/10 11/11/11 12/12/12
f 6/13/6 1/14/1 4/4/4 7/15/7
f 10/16/10 5/17/5 8/18/8 11/19/11
f 2/20/2 9/21/9 12/22/12 3/23/3
f 13/24/13 7/15/7 4/4/4 14/25/14
f 15/26/15 11/19/11 8/18/8 16/27/16
f 4/4/4 3/3/3 17/28/17 14/25/14
f 16/27/16 8/8/8 7/7/7 13/24/13
f 13/24/13 18/29/18 19/30/19 16/27/16
f 15/26/15 20/31/20 21/32/21 22/33/22
f 14/25/14 23/34/23 18/29/18 13/24/13
f 16/27/16 19/30/19 20/31/20 15/26/15
f 17/28/17 24/35/24 23/34/23 14/25/14
f 20/36/20 25/37/25 21/38/21
f 23/39/23 25/37/25 18/40/18
f 19/41/19 25/37/25 20/36/20
f 24/42/24 25/37/25 23/39/23
f 18/40/18 25/37/25 19/41/19
f 15/26/15 22/33/22 12/12/12 11/11/11
f 22/33/22 21/32/21 24/35/24 17/28/17
f 26/43/26 27/44/27 28/45/28 29/46/29
f 27/44/27 30/47/30 31/48/29 28/45/28
f 32/49/31 33/50/32 34/51/28 35/52/29
f 36/53/33 26/43/26 29/46/29 37/54/29
f 30/47/30 32/49/31 35/52/29 31/48/29
f 33/50/32 36/53/33 37/54/29 34/51/28
f 21/38/21 25/37/25 24/42/24
f 17/28/17 3/23/3 12/22/12 22/33/22
f 38/55/34 39/56/35 40/57/36 41/58/37
f 42/59/38 43/60/39 44/61/40 45/62/41
f 46/63/42 47/64/43 48/65/44 49/66/45
f 40/67/36 43/60/39 42/59/38 41/68/37
f 48/65/44 39/56/35 38/55/34 49/66/45
f 43/60/39 40/67/36 50/69/46 51/70/47
f 47/64/43 44/61/40 52/71/48 53/72/49
f 39/56/35 48/65/44 54/73/50 55/74/51
f 40/57/36 39/56/35 55/74/51 50/75/46
f 44/61/40 43/60/39 51/70/47 52/71/48
f 48/65/44 47/64/43 53/72/49 54/73/50
f 51/70/47 50/69/46 56/76/52 57/77/53
f 53/72/49 52/71/48 58/78/54 59/79/55
f 55/74/51 54/73/50 60/80/56 61/81/57
f 50/75/46 55/74/51 61/81/57 56/82/52
f 52/71/48 51/70/47 57/77/53 58/78/54
f 54/73/50 53/72/49 59/79/55 60/80/56
f 44/61/40 47/64/43 46/63/42 45/62/41
f 62/83/58 63/84/59 64/85/60 65/86/61
f 66/87/62 67/88/63 68/89/64 69/90/65
f 65/86/61 64/85/60 70/91/66 71/92/67
f 69/90/65 68/89/64 63/84/59 62/83/58
f 72/93/68 73/94/69 67/95/63 66/96/62
f 71/92/67 70/91/66 73/94/69 72/93/68
f 74/97/70 71/92/67 72/93/68 75/98/71
f 75/98/71 72/93/68 66/96/62 76/99/72
f 77/100/73 69/90/65 62/83/58 78/101/74
f 79/102/75 65/86/61 71/92/67 74/97/70
f 76/103/72 66/87/62 69/90/65 77/100/73
f 78/101/74 62/83/58 65/86/61 79/102/75
f 30/104/30 27/105/27 80/106/76 81/107/77
f 33/108/32 32/109/31 82/110/78 83/111/79
f 26/112/26 36/113/33 84/114/80 85/115/81
f 32/109/31 30/104/30 81/107/77 82/110/78
f 36/113/33 33/108/32 83/111/79 84/114/80
f 27/105/27 26/112/26 85/115/81 80/106/76
f 82/110/78 81/107/77 1/116/82 6/117/83
f 84/114/80 83/111/79 5/118/84 10/119/85
f 80/106/76 85/115/81 9/120/86 2/121/87
f 81/107/77 80/106/76 2/121/87 1/116/82
f 83/111/79 82/110/78 6/117/83 5/118/84
f 85/115/81 84/114/80 10/119/85 9/120/86
