# Blender v2.77 (sub 0) OBJ File: ''
# www.blender.org
o Circle.001_Circle.008
v -0.100126 -0.000604 -0.990784
v -0.938948 -0.000604 -0.502437
v -0.938948 -0.000604 0.466152
v -0.100126 -0.000604 0.946394
v 0.738697 -0.000604 0.457095
v 0.738697 -0.000604 -0.511494
v -0.086321 0.355397 -0.880098
v -0.828184 0.355397 -0.451783
v -0.828184 0.355397 0.404846
v -0.086321 0.355397 0.833161
v 0.655542 0.355397 0.404846
v 0.655542 0.355397 -0.451783
v -0.100126 0.751023 -0.834839
v -0.814939 0.751065 -0.424817
v -0.814939 0.751166 0.401384
v -0.100126 0.751220 0.817142
v 0.614688 0.751175 0.406484
v 0.614688 0.751079 -0.419328
v -0.100126 1.189240 -0.834256
v -0.776528 1.189240 -0.443735
v -0.776528 1.189240 0.337307
v -0.100126 1.189240 0.727828
v 0.576277 1.189240 0.337307
v 0.576277 1.189240 -0.443735
v -0.000000 0.957459 -0.231779
v -0.158391 0.957459 -0.140332
v -0.158391 0.957459 0.042563
v 0.000000 0.957459 0.134010
v 0.158391 0.957459 0.042563
v 0.158391 0.957459 -0.140332
v -0.000000 0.913065 -0.719544
v -0.606395 0.913065 -0.369441
v -0.606395 0.913065 0.330763
v 0.000000 0.913065 0.680865
v 0.606395 0.913065 0.330763
v 0.606395 0.913065 -0.369441
v -0.000000 0.724595 -1.278401
v -1.114796 0.724595 -0.634774
v -1.114796 0.724595 0.652482
v 0.000000 0.724595 1.296110
v 1.114796 0.724595 0.652482
v 1.114796 0.724595 -0.634774
v -0.000000 0.946677 -1.480785
v -1.290066 0.946677 -0.735966
v -1.290066 0.946677 0.753674
v 0.000000 0.946677 1.498494
v 1.290066 0.946677 0.753674
v 1.290066 0.946677 -0.735966
v -0.000000 1.677448 -1.212275
v -1.057529 1.677448 -0.601711
v -1.057529 1.677448 0.619419
v 0.000000 1.677448 1.229984
v 1.057529 1.677448 0.619419
v 1.057529 1.677448 -0.601711
v -0.000000 2.201428 -0.845445
v -0.739845 2.201428 -0.418296
v -0.739845 2.201428 0.436004
v 0.000000 2.201428 0.863154
v 0.739845 2.201428 0.436004
v 0.739845 2.201428 -0.418296
v -0.000000 2.431773 0.008854
v -0.000000 0.957459 -0.231779
v -0.158391 0.957459 -0.140332
v -0.158391 0.957459 0.042563
v 0.000000 0.957459 0.134010
v 0.158391 0.957459 0.042563
v 0.158391 0.957459 -0.140332
vt 0.3523 0.0007
vt 0.5549 0.0822
vt 0.5568 0.1235
vt 0.3223 0.0292
vt 0.0002 0.4223
vt 0.0037 0.2066
vt 0.0412 0.1902
vt 0.0371 0.4399
vt 0.5749 0.5437
vt 0.3902 0.6507
vt 0.3572 0.6273
vt 0.5710 0.5035
vt 0.0884 0.0785
vt 0.2928 0.0002
vt 0.0858 0.1198
vt 0.2529 0.6507
vt 0.0682 0.5419
vt 0.0725 0.5016
vt 0.2862 0.6275
vt 0.6369 0.2068
vt 0.6437 0.4217
vt 0.6072 0.4398
vt 0.5994 0.1911
vt 0.1503 0.2145
vt 0.3215 0.1350
vt 0.3221 0.5224
vt 0.1470 0.4192
vt 0.4910 0.2169
vt 0.2253 0.2671
vt 0.2287 0.3786
vt 0.3273 0.4317
vt 0.4204 0.3726
vt 0.4974 0.4208
vt 0.3163 0.2125
vt 0.4111 0.2628
vt 0.6441 0.5556
vt 0.7624 0.4873
vt 0.7624 0.6239
vt 0.8807 0.4190
vt 0.7624 0.3507
vt 0.6441 0.4190
vt 0.8807 0.5556
vt 0.7299 0.6642
vt 0.7282 0.6925
vt 0.7276 0.6922
vt 0.7294 0.6645
vt 0.7051 0.7093
vt 0.7050 0.7087
vt 0.6808 0.6954
vt 0.6808 0.6667
vt 0.6813 0.6669
vt 0.6813 0.6951
vt 0.7050 0.6511
vt 0.7051 0.6517
vt 0.6980 0.0189
vt 0.7209 0.0829
vt 0.6784 0.0993
vt 0.6441 0.0443
vt 0.9277 0.0178
vt 0.9061 0.0811
vt 0.8611 0.0710
vt 0.8709 0.0044
vt 0.8133 0.0002
vt 0.8137 0.0693
vt 0.7663 0.0719
vt 0.7554 0.0049
vt 0.9478 0.0962
vt 0.9806 0.0419
vt 0.9059 0.2261
vt 0.8763 0.2214
vt 0.8457 0.2186
vt 0.8144 0.2179
vt 0.7833 0.2194
vt 0.7528 0.2230
vt 0.7237 0.2283
vt 0.8970 0.3503
vt 0.8695 0.3485
vt 0.8422 0.3473
vt 0.8150 0.3468
vt 0.7879 0.3472
vt 0.7609 0.3484
vt 0.7341 0.3503
vt 0.2155 0.8500
vt 0.2297 0.8256
vt 0.3098 0.8257
vt 0.2554 0.9194
vt 0.1733 0.8253
vt 0.1873 0.8499
vt 0.1471 0.9191
vt 0.0933 0.8252
vt 0.2157 0.8011
vt 0.1875 0.8010
vt 0.1476 0.7316
vt 0.2559 0.7319
vt 0.3022 0.9998
vt 0.1008 0.9998
vt 0.0002 0.8255
vt 0.1008 0.6511
vt 0.3022 0.6511
vt 0.4028 0.8255
vn 0.6401 -0.6736 -0.3696
vn 0.0000 -0.6736 -0.7391
vn 0.0000 -0.1669 -0.9860
vn 0.8538 -0.1669 -0.4930
vn 0.0000 -0.6736 0.7391
vn 0.6401 -0.6736 0.3696
vn 0.8538 -0.1669 0.4930
vn 0.0000 -0.1669 0.9860
vn -0.6401 -0.6736 -0.3696
vn -0.6401 -0.6736 0.3696
vn -0.8538 -0.1669 0.4930
vn -0.8538 -0.1669 -0.4930
vn 0.7747 0.4469 0.4473
vn 0.7747 0.4469 -0.4473
vn -0.7747 0.4469 0.4473
vn 0.0000 0.4469 0.8946
vn 0.0000 0.4469 -0.8946
vn 0.5544 0.7682 0.3201
vn 0.0000 0.7682 0.6402
vn -0.5544 0.7682 0.3201
vn -0.5544 0.7682 -0.3201
vn -0.7747 0.4469 -0.4473
vn 0.5544 0.7682 -0.3201
vn 0.0000 0.7682 -0.6402
vn 0.0000 1.0000 0.0000
vn 0.0586 -0.7790 0.6242
vn 0.0000 -0.7634 0.6459
vn 0.0000 0.0000 1.0000
vn -0.0586 -0.7790 0.6242
vn -0.0597 -0.8122 0.5803
vn 0.0000 -0.8297 0.5582
vn 0.0597 -0.8122 0.5803
vn -0.0123 0.2978 -0.9546
vn 0.0109 0.2129 -0.9770
vn 0.8486 0.2051 -0.4877
vn 0.8289 0.2723 -0.4887
vn 0.8335 0.2687 0.4828
vn 0.8562 0.1850 0.4824
vn 0.0130 0.1808 0.9834
vn -0.0074 0.3029 0.9530
vn -0.8169 0.3328 0.4711
vn -0.8495 0.1938 0.4906
vn -0.8417 0.2052 -0.4993
vn -0.8235 0.3249 -0.4650
vn 0.8712 0.0909 -0.4824
vn 0.8481 0.1196 0.5161
vn -0.0072 0.1174 0.9930
vn -0.8563 0.0896 0.5087
vn -0.8737 0.0595 -0.4828
vn -0.0045 0.0584 -0.9983
vn 0.8502 0.0470 -0.5244
vn 0.8711 0.1492 0.4678
vn -0.0016 0.1992 0.9799
vn -0.8706 0.1466 0.4697
vn -0.8510 0.0505 -0.5227
vn 0.0015 0.0013 -1.0000
vn 0.0000 -0.9700 0.2431
vn -0.2036 -0.9713 0.1228
vn -0.1988 -0.9738 -0.1099
vn 0.0000 -0.9750 -0.2221
vn 0.1988 -0.9738 -0.1099
vn 0.2036 -0.9713 0.1228
vn -0.2719 -0.9500 0.1538
vn -0.2577 -0.9542 -0.1518
vn -0.0000 -0.9561 -0.2929
vn 0.2577 -0.9542 -0.1518
vn 0.2719 -0.9500 0.1538
vn 0.0000 -0.9476 0.3196
s 1
f 42/1/1 37/2/2 43/3/3 48/4/4
f 40/5/5 41/6/6 47/7/7 46/8/8
f 38/9/9 39/10/10 45/11/11 44/12/12
f 41/13/6 42/14/1 48/4/4 47/15/7
f 39/16/10 40/17/5 46/18/8 45/19/11
f 37/20/2 38/21/9 44/22/12 43/23/3
f 53/24/13 47/15/7 48/4/4 54/25/14
f 51/26/15 45/19/11 46/18/8 52/27/16
f 48/4/4 43/3/3 49/28/17 54/25/14
f 52/27/16 46/8/8 47/7/7 53/24/13
f 53/24/13 59/29/18 58/30/19 52/27/16
f 51/26/15 57/31/20 56/32/21 50/33/22
f 54/25/14 60/34/23 59/29/18 53/24/13
f 52/27/16 58/30/19 57/31/20 51/26/15
f 49/28/17 55/35/24 60/34/23 54/25/14
f 57/36/20 61/37/25 56/38/21
f 60/39/23 61/37/25 59/40/18
f 58/41/19 61/37/25 57/36/20
f 55/42/24 61/37/25 60/39/23
f 59/40/18 61/37/25 58/41/19
f 51/26/15 50/33/22 44/12/12 45/11/11
f 50/33/22 56/32/21 55/35/24 49/28/17
f 26/43/26 25/44/27 62/45/28 63/46/28
f 25/44/27 30/47/29 67/48/28 62/45/28
f 29/49/30 28/50/31 65/51/28 66/52/28
f 27/53/32 26/43/26 63/46/28 64/54/28
f 30/47/29 29/49/30 66/52/28 67/48/28
f 28/50/31 27/53/32 64/54/28 65/51/28
f 56/38/21 61/37/25 55/42/24
f 49/28/17 43/23/3 44/22/12 50/33/22
f 1/55/33 7/56/34 12/57/35 6/58/36
f 5/59/37 11/60/38 10/61/39 4/62/40
f 3/63/41 9/64/42 8/65/43 2/66/44
f 12/67/35 11/60/38 5/59/37 6/68/36
f 8/65/43 7/56/34 1/55/33 2/66/44
f 11/60/38 12/67/35 18/69/45 17/70/46
f 9/64/42 10/61/39 16/71/47 15/72/48
f 7/56/34 8/65/43 14/73/49 13/74/50
f 12/57/35 7/56/34 13/74/50 18/75/45
f 10/61/39 11/60/38 17/70/46 16/71/47
f 8/65/43 9/64/42 15/72/48 14/73/49
f 17/70/46 18/69/45 24/76/51 23/77/52
f 15/72/48 16/71/47 22/78/53 21/79/54
f 13/74/50 14/73/49 20/80/55 19/81/56
f 18/75/45 13/74/50 19/81/56 24/82/51
f 16/71/47 17/70/46 23/77/52 22/78/53
f 14/73/49 15/72/48 21/79/54 20/80/55
f 10/61/39 9/64/42 3/63/41 4/62/40
f 30/83/29 25/84/27 31/85/57 36/86/58
f 28/87/31 29/88/30 35/89/59 34/90/60
f 26/91/26 27/92/32 33/93/61 32/94/62
f 29/88/30 30/83/29 36/86/58 35/89/59
f 27/92/32 28/87/31 34/90/60 33/93/61
f 25/84/27 26/91/26 32/94/62 31/85/57
f 35/89/59 36/86/58 42/95/63 41/96/64
f 33/93/61 34/90/60 40/97/65 39/98/66
f 31/85/57 32/94/62 38/99/67 37/100/68
f 36/86/58 31/85/57 37/100/68 42/95/63
f 34/90/60 35/89/59 41/96/64 40/97/65
f 32/94/62 33/93/61 39/98/66 38/99/67
