# Blender v2.77 (sub 0) OBJ File: 'Trees.blend'
# www.blender.org
o Cylinder.007_Cylinder.005
v 0.000001 0.000000 -0.553238
v 0.455078 0.000000 -0.334091
v 0.567472 0.000000 0.158340
v 0.252549 0.000000 0.553246
v -0.252548 0.000000 0.553246
v -0.567470 0.000000 0.158340
v -0.455076 0.000000 -0.334091
v 0.000001 40.534882 -0.489708
v -0.341993 4.551719 -0.143982
v 0.034076 9.775385 -0.049141
v 0.215172 9.726986 0.034554
v -0.041505 4.574676 -0.093224
v 0.261417 9.560593 0.213959
v 0.105332 4.671429 0.170212
v 0.137988 9.401504 0.353981
v -0.012054 4.769123 0.447960
v -0.062170 9.369517 0.349167
v -0.305267 4.794191 0.530861
v -0.188334 9.488717 0.203156
v -0.553514 4.727758 0.356491
v -0.145500 9.669347 0.025887
v -0.569858 4.619846 0.056160
vt 0.6210 0.0006
vt 0.6255 0.0388
vt 0.6221 0.0384
vt 0.6153 0.0010
vt 0.6207 0.0820
vt 0.6231 0.0831
vt 0.6416 0.3521
vt 0.6344 0.0799
vt 0.6366 0.0812
vt 0.6437 0.3520
vt 0.6321 0.0795
vt 0.6433 0.3520
vt 0.6298 0.0805
vt 0.6430 0.3520
vt 0.6277 0.0820
vt 0.6427 0.3521
vt 0.6254 0.0831
vt 0.6423 0.3521
vt 0.6383 0.0000
vt 0.6359 0.0404
vt 0.6323 0.0405
vt 0.6325 0.0001
vt 0.6289 0.0398
vt 0.6267 0.0004
vt 0.6420 0.3521
vt 0.6440 0.0004
vt 0.6393 0.0396
vt 0.6096 0.0016
vt 0.6187 0.0391
vt 0.6156 0.0407
vt 0.6040 0.0029
vn -0.8280 0.0266 -0.5601
vn -0.8644 0.0424 -0.5010
vn -0.1511 0.0562 -0.9869
vn -0.0827 0.0819 -0.9932
vn 0.9876 -0.0075 0.1568
vn 0.7297 -0.0054 -0.6838
vn 0.1920 0.9671 -0.1669
vn 0.5032 0.0068 0.8641
vn -0.3247 0.0425 0.9449
vn -0.9404 0.0529 0.3358
vn -0.8132 0.0266 -0.5814
vn -0.0381 0.0008 -0.9993
vn 0.5364 0.0490 0.8426
vn 0.5414 0.0184 0.8405
vn -0.3059 0.0291 0.9516
vn -0.3330 0.0006 0.9429
vn -0.9291 0.0373 0.3680
vn -0.9495 -0.0104 0.3137
vn 0.9898 0.0983 0.1027
vn 0.9964 0.0322 0.0778
vn 0.7066 0.1126 -0.6986
vn 0.6705 0.0564 -0.7398
s 1
f 7/1/1 22/2/2 9/3/3 1/4/4
f 13/5/5 11/6/6 8/7/7
f 15/8/8 13/9/5 8/10/7
f 17/11/9 15/8/8 8/12/7
f 19/13/10 17/11/9 8/14/7
f 21/15/11 19/13/10 8/16/7
f 10/17/12 21/15/11 8/18/7
f 4/19/13 16/20/14 18/21/15 5/22/16
f 5/22/16 18/21/15 20/23/17 6/24/18
f 11/6/6 10/17/12 8/25/7
f 3/26/19 14/27/20 16/20/14 4/19/13
f 6/24/18 20/23/17 22/2/2 7/1/1
f 2/28/21 12/29/22 14/30/20 3/31/19
f 12/29/22 9/3/3 10/17/12 11/6/6
f 14/30/20 12/29/22 11/6/6 13/5/5
f 16/20/14 14/27/20 13/9/5 15/8/8
f 18/21/15 16/20/14 15/8/8 17/11/9
f 20/23/17 18/21/15 17/11/9 19/13/10
f 22/2/2 20/23/17 19/13/10 21/15/11
f 9/3/3 22/2/2 21/15/11 10/17/12
f 1/4/4 9/3/3 12/29/22 2/28/21
