# Blender v2.77 (sub 0) OBJ File: 'Trees.blend'
# www.blender.org
o Cylinder.008_Cylinder.006
v -0.000001 0.000000 -0.802109
v 0.659782 0.000000 -0.484375
v 0.822735 0.000000 0.229561
v 0.366151 0.000000 0.802109
v -0.366153 0.000000 0.802109
v -0.822737 0.000000 0.229568
v -0.659784 0.000000 -0.484375
v -0.000001 33.058895 -0.125160
v 0.240923 3.722425 -0.393410
v -0.084553 7.946421 0.559586
v 0.136669 7.913162 0.661827
v 0.631659 3.739216 -0.327400
v 0.193161 7.798822 0.880989
v 0.822595 3.809989 0.015152
v 0.042384 7.689500 1.052032
v 0.669955 3.881449 0.376320
v -0.202124 7.667521 1.046158
v 0.288678 3.899786 0.484116
v -0.356244 7.749432 0.867790
v -0.034125 3.851192 0.257378
v -0.303920 7.873554 0.651245
v -0.055378 3.772258 -0.133156
vt 0.3805 -0.0000
vt 0.3864 0.0426
vt 0.3817 0.0422
vt 0.3726 0.0013
vt 0.3803 0.0882
vt 0.3831 0.0892
vt 0.4084 0.3889
vt 0.3967 0.0858
vt 0.3994 0.0870
vt 0.4115 0.3886
vt 0.3938 0.0858
vt 0.4110 0.3887
vt 0.3912 0.0869
vt 0.4105 0.3887
vt 0.3887 0.0885
vt 0.4099 0.3888
vt 0.3859 0.0894
vt 0.4094 0.3888
vt 0.4042 0.0039
vt 0.3998 0.0445
vt 0.3954 0.0445
vt 0.3964 0.0023
vt 0.3910 0.0437
vt 0.3885 0.0006
vt 0.4089 0.3889
vt 0.4121 0.0047
vt 0.4042 0.0439
vt 0.3652 0.0044
vt 0.3773 0.0432
vt 0.3734 0.0452
vt 0.3582 0.0083
vn -0.8219 0.1817 -0.5399
vn -0.8319 0.1267 -0.5403
vn -0.1028 0.1585 -0.9820
vn -0.1091 0.1150 -0.9874
vn 0.9763 0.0925 0.1958
vn 0.7296 0.1116 -0.6746
vn -0.0232 0.9997 -0.0087
vn 0.4655 -0.0067 0.8850
vn -0.3448 -0.0792 0.9353
vn -0.9374 -0.0506 0.3446
vn -0.8349 0.0229 -0.5499
vn -0.0715 0.0770 -0.9944
vn 0.4905 0.0554 0.8697
vn 0.5876 0.0080 0.8091
vn -0.2732 -0.0325 0.9614
vn -0.3715 0.1366 0.9183
vn -0.9367 0.0286 0.3490
vn -0.9383 0.1905 0.2885
vn 0.9899 0.0077 0.1418
vn 0.9946 0.0840 0.0601
vn 0.7106 0.0352 -0.7027
vn 0.6852 0.1337 -0.7159
s 1
f 7/1/1 22/2/2 9/3/3 1/4/4
f 13/5/5 11/6/6 8/7/7
f 15/8/8 13/9/5 8/10/7
f 17/11/9 15/8/8 8/12/7
f 19/13/10 17/11/9 8/14/7
f 21/15/11 19/13/10 8/16/7
f 10/17/12 21/15/11 8/18/7
f 4/19/13 16/20/14 18/21/15 5/22/16
f 5/22/16 18/21/15 20/23/17 6/24/18
f 11/6/6 10/17/12 8/25/7
f 3/26/19 14/27/20 16/20/14 4/19/13
f 6/24/18 20/23/17 22/2/2 7/1/1
f 2/28/21 12/29/22 14/30/20 3/31/19
f 12/29/22 9/3/3 10/17/12 11/6/6
f 14/30/20 12/29/22 11/6/6 13/5/5
f 16/20/14 14/27/20 13/9/5 15/8/8
f 18/21/15 16/20/14 15/8/8 17/11/9
f 20/23/17 18/21/15 17/11/9 19/13/10
f 22/2/2 20/23/17 19/13/10 21/15/11
f 9/3/3 22/2/2 21/15/11 10/17/12
f 1/4/4 9/3/3 12/29/22 2/28/21
